<svg height="480pt" viewBox="0 0 480 480" width="480pt" xmlns="http://www.w3.org/2000/svg"><path d="m456 204.28125c-27.328125.113281-53.285156-11.941406-70.832031-32.894531-17.542969-20.953125-24.851563-48.625-19.9375-75.507813-43.058594-1.460937-77.210938-36.78125-77.230469-79.863281 0-1 .113281-1.976563.152344-2.96875-99.453125-21.097656-201.054688 25.011719-250.660156 113.757813-49.601563 88.746093-35.644532 199.445312 34.429687 273.101562 70.074219 73.660156 179.945313 93.109375 271.046875 47.992188 91.105469-45.121094 142.222656-144.300782 126.101562-244.683594-4.324218.664062-8.691406 1.019531-13.070312 1.066406zm0 0" fill="#efa66a"/><g fill="#b5554e"><path d="m152 144.015625c0 13.253906-10.746094 24-24 24s-24-10.746094-24-24 10.746094-24 24-24 24 10.746094 24 24zm0 0"/><path d="m184 320.015625c0 22.089844-17.910156 40-40 40s-40-17.910156-40-40 17.910156-40 40-40 40 17.910156 40 40zm0 0"/><path d="m312 180.015625c0 15.464844-12.535156 28-28 28s-28-12.535156-28-28 12.535156-28 28-28 28 12.535156 28 28zm0 0"/><path d="m344 320.015625c0 13.253906-10.746094 24-24 24s-24-10.746094-24-24 10.746094-24 24-24 24 10.746094 24 24zm0 0"/></g><path d="m232 155.855469c-1.386719 0-2.753906-.359375-3.960938-1.046875l-34.726562-19.847656c-2.554688-1.382813-4.160156-4.039063-4.195312-6.941407-.035157-2.902343 1.503906-5.597656 4.023437-7.039062 2.519531-1.445313 5.621094-1.410157 8.105469.089843l34.730468 19.839844c3.148438 1.800782 4.691407 5.496094 3.757813 9.003906-.933594 3.503907-4.105469 5.941407-7.734375 5.941407zm0 0" fill="#e9686a"/><path d="m195.199219 420.953125c-3.6875.003906-6.898438-2.515625-7.777344-6.09375-.878906-3.582031.804687-7.300781 4.074219-9.003906l49.640625-25.839844c3.917969-2.042969 8.75-.519531 10.792969 3.398437 2.039062 3.921876.515624 8.753907-3.402344 10.792969l-49.664063 25.808594c-1.128906.601563-2.382812.921875-3.664062.9375zm0 0" fill="#e9686a"/><path d="m152 248.015625h-48c-4.417969 0-8-3.582031-8-8s3.582031-8 8-8h48c4.417969 0 8 3.582031 8 8s-3.582031 8-8 8zm0 0" fill="#e9686a"/><path d="m392 288.015625c-1.234375.011719-2.457031-.261719-3.566406-.800781l-48-24c-3.957032-1.972656-5.5625-6.78125-3.585938-10.734375 1.976563-3.957031 6.78125-5.558594 10.738282-3.585938l48 24c3.277343 1.679688 4.984374 5.382813 4.136718 8.964844-.851562 3.585937-4.039062 6.128906-7.722656 6.15625zm0 0" fill="#e9686a"/><path d="m128 176.015625c17.671875 0 32-14.328125 32-32s-14.328125-32-32-32-32 14.328125-32 32 14.328125 32 32 32zm0-48c8.835938 0 16 7.164063 16 16s-7.164062 16-16 16-16-7.164063-16-16 7.164062-16 16-16zm0 0"/><path d="m144 272.015625c-26.507812 0-48 21.492187-48 48s21.492188 48 48 48 48-21.492187 48-48c-.027344-26.5-21.5-47.972656-48-48zm0 80c-17.671875 0-32-14.328125-32-32s14.328125-32 32-32 32 14.328125 32 32-14.328125 32-32 32zm0 0"/><path d="m320 180.015625c0-19.882813-16.117188-36-36-36s-36 16.117187-36 36 16.117188 36 36 36c19.875-.023437 35.976562-16.125 36-36zm-36 20c-11.046875 0-20-8.953125-20-20s8.953125-20 20-20 20 8.953125 20 20-8.953125 20-20 20zm0 0"/><path d="m320 288.015625c-17.671875 0-32 14.328125-32 32s14.328125 32 32 32 32-14.328125 32-32-14.328125-32-32-32zm0 48c-8.835938 0-16-7.164063-16-16s7.164062-16 16-16 16 7.164063 16 16-7.164062 16-16 16zm0 0"/><path d="m475.734375 194.214844-7.789063 1.113281c-26.769531 3.988281-53.820312-5.1875-72.636718-24.644531-18.816406-19.457032-27.082032-46.796875-22.195313-73.421875l1.597657-9.070313-9.207032-.3125c-38.8125-1.164062-69.632812-33.035156-69.503906-71.863281 0-.417969 0-.800781.0625-1.214844l.320312-8.183593-6.582031-1.394532c-99.441406-21.09375-201.382812 22.75-254.472656 109.4375-53.085937 86.691406-45.800781 197.421875 18.183594 276.410156 63.988281 78.988282 170.792969 109.097657 266.613281 75.160157s159.867188-124.5625 159.875-226.214844c-.007812-12.734375-1.019531-25.449219-3.023438-38.023437zm-235.734375 269.800781c-84.839844-.011719-162.390625-47.949219-200.328125-123.832031-37.933594-75.882813-29.746094-166.6875 21.152344-234.5625 50.898437-67.871094 135.777343-101.164063 219.246093-85.996094 1.605469 42.671875 33.757813 77.960938 76.097657 83.519531-.289063 3.023438-.433594 5.96875-.433594 8.871094.0625 55.347656 44.917969 100.203125 100.265625 100.265625 2.023438 0 4.089844-.082031 6.238281-.234375 8.046875 63.78125-11.707031 127.945313-54.230469 176.160156-42.527343 48.210938-103.71875 75.824219-168.007812 75.808594zm0 0"/><path d="m193.304688 134.960938 34.695312 19.847656c3.835938 2.191406 8.722656.855468 10.914062-2.980469 2.195313-3.835937.859376-8.726563-2.976562-10.917969l-34.730469-19.839844c-2.484375-1.5-5.589843-1.535156-8.109375-.089843-2.515625 1.441406-4.058594 4.136719-4.019531 7.039062.035156 2.902344 1.640625 5.558594 4.195313 6.941407zm0 0"/><path d="m241.136719 380.015625-49.664063 25.839844c-3.917968 2.042969-5.441406 6.875-3.402344 10.792969 2.042969 3.917968 6.875 5.441406 10.792969 3.398437l49.664063-25.871094c3.917968-2.042969 5.441406-6.875 3.402344-10.792969-2.042969-3.917968-6.875-5.441406-10.792969-3.398437zm0 0"/><path d="m104 248.015625h48c4.417969 0 8-3.582031 8-8s-3.582031-8-8-8h-48c-4.417969 0-8 3.582031-8 8s3.582031 8 8 8zm0 0"/><path d="m395.574219 272.816406-48-24c-3.953125-1.976562-8.757813-.371094-10.734375 3.582032-1.976563 3.957031-.371094 8.761718 3.585937 10.738281l48 24c3.953125 1.972656 8.757813.371093 10.734375-3.585938 1.976563-3.953125.371094-8.761719-3.585937-10.734375zm0 0"/></svg>